# 3ds Max Wavefront OBJ Exporter v0.97b - (c)2007 guruware
# File Created: 07.03.2019 15:37:00

mtllib cilindro.mtl

#
# object Cylinder001
#

v  8.1236 0.0000 2.3082
v  7.3893 0.0000 -1.8566
v  7.3893 12.9142 -1.8566
v  8.1236 12.9142 2.3082
v  5.2747 0.0000 -5.5190
v  5.2747 12.9142 -5.5190
v  2.0351 0.0000 -8.2374
v  2.0351 12.9142 -8.2374
v  -1.9389 0.0000 -9.6838
v  -1.9389 12.9142 -9.6838
v  -6.1680 0.0000 -9.6838
v  -6.1680 12.9142 -9.6838
v  -10.1420 0.0000 -8.2374
v  -10.1420 12.9142 -8.2374
v  -13.3816 0.0000 -5.5190
v  -13.3816 12.9142 -5.5190
v  -15.4961 0.0000 -1.8566
v  -15.4961 12.9142 -1.8566
v  -16.2305 0.0000 2.3082
v  -16.2305 12.9142 2.3082
v  -15.4961 0.0000 6.4730
v  -15.4961 12.9142 6.4730
v  -13.3816 0.0000 10.1355
v  -13.3816 12.9142 10.1355
v  -10.1420 0.0000 12.8539
v  -10.1420 12.9142 12.8539
v  -6.1680 0.0000 14.3003
v  -6.1680 12.9142 14.3003
v  -1.9389 0.0000 14.3003
v  -1.9389 12.9142 14.3003
v  2.0351 0.0000 12.8539
v  2.0351 12.9142 12.8539
v  5.2747 0.0000 10.1355
v  5.2747 12.9142 10.1355
v  7.3893 0.0000 6.4730
v  7.3893 12.9142 6.4730
v  7.3893 25.8284 -1.8566
v  8.1236 25.8284 2.3082
v  5.2747 25.8284 -5.5190
v  2.0351 25.8284 -8.2374
v  -1.9389 25.8284 -9.6838
v  -6.1680 25.8284 -9.6838
v  -10.1420 25.8284 -8.2374
v  -13.3816 25.8284 -5.5190
v  -15.4961 25.8284 -1.8566
v  -16.2305 25.8284 2.3082
v  -15.4961 25.8284 6.4730
v  -13.3816 25.8284 10.1355
v  -10.1420 25.8284 12.8539
v  -6.1680 25.8284 14.3003
v  -1.9389 25.8284 14.3003
v  2.0351 25.8284 12.8539
v  5.2747 25.8284 10.1355
v  7.3893 25.8284 6.4730
v  7.3893 38.7426 -1.8566
v  8.1236 38.7426 2.3082
v  5.2747 38.7426 -5.5190
v  2.0351 38.7426 -8.2374
v  -1.9389 38.7426 -9.6838
v  -6.1680 38.7426 -9.6838
v  -10.1420 38.7426 -8.2374
v  -13.3816 38.7426 -5.5190
v  -15.4961 38.7426 -1.8566
v  -16.2305 38.7426 2.3082
v  -15.4961 38.7426 6.4730
v  -13.3816 38.7426 10.1355
v  -10.1420 38.7426 12.8539
v  -6.1680 38.7426 14.3003
v  -1.9389 38.7426 14.3003
v  2.0351 38.7426 12.8539
v  5.2747 38.7426 10.1355
v  7.3893 38.7426 6.4730
v  7.3893 51.6568 -1.8566
v  8.1236 51.6568 2.3082
v  5.2747 51.6568 -5.5190
v  2.0351 51.6568 -8.2374
v  -1.9389 51.6568 -9.6838
v  -6.1680 51.6568 -9.6838
v  -10.1420 51.6568 -8.2374
v  -13.3816 51.6568 -5.5190
v  -15.4961 51.6568 -1.8566
v  -16.2305 51.6568 2.3082
v  -15.4961 51.6568 6.4730
v  -13.3816 51.6568 10.1355
v  -10.1420 51.6568 12.8539
v  -6.1680 51.6568 14.3003
v  -1.9389 51.6568 14.3003
v  2.0351 51.6568 12.8539
v  5.2747 51.6568 10.1355
v  7.3893 51.6568 6.4730
v  7.3893 64.5710 -1.8566
v  8.1236 64.5710 2.3082
v  5.2747 64.5710 -5.5190
v  2.0351 64.5710 -8.2374
v  -1.9389 64.5710 -9.6838
v  -6.1680 64.5710 -9.6838
v  -10.1420 64.5710 -8.2374
v  -13.3816 64.5710 -5.5190
v  -15.4961 64.5710 -1.8566
v  -16.2305 64.5710 2.3082
v  -15.4961 64.5710 6.4730
v  -13.3816 64.5710 10.1355
v  -10.1420 64.5710 12.8539
v  -6.1680 64.5710 14.3003
v  -1.9389 64.5710 14.3003
v  2.0351 64.5710 12.8539
v  5.2747 64.5710 10.1355
v  7.3893 64.5710 6.4730
# 108 vertices

vn 1.0000 0.0000 -0.0000
vn 0.9397 0.0000 -0.3420
vn 0.7660 0.0000 -0.6428
vn 0.5000 0.0000 -0.8660
vn 0.1736 0.0000 -0.9848
vn -0.1736 0.0000 -0.9848
vn -0.5000 0.0000 -0.8660
vn -0.7660 0.0000 -0.6428
vn -0.9397 0.0000 -0.3420
vn -1.0000 0.0000 -0.0000
vn -0.9397 0.0000 0.3420
vn -0.7660 0.0000 0.6428
vn -0.5000 0.0000 0.8660
vn -0.1736 0.0000 0.9848
vn 0.1736 0.0000 0.9848
vn 0.5000 0.0000 0.8660
vn 0.7660 0.0000 0.6428
vn 0.9397 0.0000 0.3420
# 18 vertex normals

vt 0.7500 0.0000 1.0000
vt 0.8056 0.0000 1.0000
vt 0.8056 0.2000 1.0000
vt 0.7500 0.2000 1.0000
vt 0.8611 0.0000 1.0000
vt 0.8611 0.2000 1.0000
vt 0.9167 0.0000 1.0000
vt 0.9167 0.2000 1.0000
vt 0.9722 0.0000 1.0000
vt 0.9722 0.2000 1.0000
vt -0.0278 0.0000 1.0000
vt 0.0278 0.0000 1.0000
vt 0.0278 0.2000 1.0000
vt -0.0278 0.2000 1.0000
vt 0.0833 0.0000 1.0000
vt 0.0833 0.2000 1.0000
vt 0.1389 0.0000 1.0000
vt 0.1389 0.2000 1.0000
vt 0.1944 0.0000 1.0000
vt 0.1944 0.2000 1.0000
vt 0.2500 0.0000 1.0000
vt 0.2500 0.2000 1.0000
vt 0.3056 0.0000 1.0000
vt 0.3056 0.2000 1.0000
vt 0.3611 0.0000 1.0000
vt 0.3611 0.2000 1.0000
vt 0.4167 0.0000 1.0000
vt 0.4167 0.2000 1.0000
vt 0.4722 0.0000 1.0000
vt 0.4722 0.2000 1.0000
vt 0.5278 0.0000 1.0000
vt 0.5278 0.2000 1.0000
vt 0.5833 0.0000 1.0000
vt 0.5833 0.2000 1.0000
vt 0.6389 0.0000 1.0000
vt 0.6389 0.2000 1.0000
vt 0.6944 0.0000 1.0000
vt 0.6944 0.2000 1.0000
vt 0.8056 0.4000 1.0000
vt 0.7500 0.4000 1.0000
vt 0.8611 0.4000 1.0000
vt 0.9167 0.4000 1.0000
vt 0.9722 0.4000 1.0000
vt 0.0278 0.4000 1.0000
vt -0.0278 0.4000 1.0000
vt 0.0833 0.4000 1.0000
vt 0.1389 0.4000 1.0000
vt 0.1944 0.4000 1.0000
vt 0.2500 0.4000 1.0000
vt 0.3056 0.4000 1.0000
vt 0.3611 0.4000 1.0000
vt 0.4167 0.4000 1.0000
vt 0.4722 0.4000 1.0000
vt 0.5278 0.4000 1.0000
vt 0.5833 0.4000 1.0000
vt 0.6389 0.4000 1.0000
vt 0.6944 0.4000 1.0000
vt 0.8056 0.6000 1.0000
vt 0.7500 0.6000 1.0000
vt 0.8611 0.6000 1.0000
vt 0.9167 0.6000 1.0000
vt 0.9722 0.6000 1.0000
vt 0.0278 0.6000 1.0000
vt -0.0278 0.6000 1.0000
vt 0.0833 0.6000 1.0000
vt 0.1389 0.6000 1.0000
vt 0.1944 0.6000 1.0000
vt 0.2500 0.6000 1.0000
vt 0.3056 0.6000 1.0000
vt 0.3611 0.6000 1.0000
vt 0.4167 0.6000 1.0000
vt 0.4722 0.6000 1.0000
vt 0.5278 0.6000 1.0000
vt 0.5833 0.6000 1.0000
vt 0.6389 0.6000 1.0000
vt 0.6944 0.6000 1.0000
vt 0.8056 0.8000 1.0000
vt 0.7500 0.8000 1.0000
vt 0.8611 0.8000 1.0000
vt 0.9167 0.8000 1.0000
vt 0.9722 0.8000 1.0000
vt 0.0278 0.8000 1.0000
vt -0.0278 0.8000 1.0000
vt 0.0833 0.8000 1.0000
vt 0.1389 0.8000 1.0000
vt 0.1944 0.8000 1.0000
vt 0.2500 0.8000 1.0000
vt 0.3056 0.8000 1.0000
vt 0.3611 0.8000 1.0000
vt 0.4167 0.8000 1.0000
vt 0.4722 0.8000 1.0000
vt 0.5278 0.8000 1.0000
vt 0.5833 0.8000 1.0000
vt 0.6389 0.8000 1.0000
vt 0.6944 0.8000 1.0000
vt 0.8056 1.0000 1.0000
vt 0.7500 1.0000 1.0000
vt 0.8611 1.0000 1.0000
vt 0.9167 1.0000 1.0000
vt 0.9722 1.0000 1.0000
vt 0.0278 1.0000 1.0000
vt -0.0278 1.0000 1.0000
vt 0.0833 1.0000 1.0000
vt 0.1389 1.0000 1.0000
vt 0.1944 1.0000 1.0000
vt 0.2500 1.0000 1.0000
vt 0.3056 1.0000 1.0000
vt 0.3611 1.0000 1.0000
vt 0.4167 1.0000 1.0000
vt 0.4722 1.0000 1.0000
vt 0.5278 1.0000 1.0000
vt 0.5833 1.0000 1.0000
vt 0.6389 1.0000 1.0000
vt 0.6944 1.0000 1.0000
# 114 texture coords

o Cylinder001
g Cylinder001
usemtl wire_141007058
s 8
f 1/1/1 2/2/2 3/3/2 4/4/1 
f 2/2/2 5/5/3 6/6/3 3/3/2 
f 5/5/3 7/7/4 8/8/4 6/6/3 
f 7/7/4 9/9/5 10/10/5 8/8/4 
f 9/11/5 11/12/6 12/13/6 10/14/5 
f 11/12/6 13/15/7 14/16/7 12/13/6 
f 13/15/7 15/17/8 16/18/8 14/16/7 
f 15/17/8 17/19/9 18/20/9 16/18/8 
f 17/19/9 19/21/10 20/22/10 18/20/9 
f 19/21/10 21/23/11 22/24/11 20/22/10 
f 21/23/11 23/25/12 24/26/12 22/24/11 
f 23/25/12 25/27/13 26/28/13 24/26/12 
f 25/27/13 27/29/14 28/30/14 26/28/13 
f 27/29/14 29/31/15 30/32/15 28/30/14 
f 29/31/15 31/33/16 32/34/16 30/32/15 
f 31/33/16 33/35/17 34/36/17 32/34/16 
f 33/35/17 35/37/18 36/38/18 34/36/17 
f 35/37/18 1/1/1 4/4/1 36/38/18 
f 4/4/1 3/3/2 37/39/2 38/40/1 
f 3/3/2 6/6/3 39/41/3 37/39/2 
f 6/6/3 8/8/4 40/42/4 39/41/3 
f 8/8/4 10/10/5 41/43/5 40/42/4 
f 10/14/5 12/13/6 42/44/6 41/45/5 
f 12/13/6 14/16/7 43/46/7 42/44/6 
f 14/16/7 16/18/8 44/47/8 43/46/7 
f 16/18/8 18/20/9 45/48/9 44/47/8 
f 18/20/9 20/22/10 46/49/10 45/48/9 
f 20/22/10 22/24/11 47/50/11 46/49/10 
f 22/24/11 24/26/12 48/51/12 47/50/11 
f 24/26/12 26/28/13 49/52/13 48/51/12 
f 26/28/13 28/30/14 50/53/14 49/52/13 
f 28/30/14 30/32/15 51/54/15 50/53/14 
f 30/32/15 32/34/16 52/55/16 51/54/15 
f 32/34/16 34/36/17 53/56/17 52/55/16 
f 34/36/17 36/38/18 54/57/18 53/56/17 
f 36/38/18 4/4/1 38/40/1 54/57/18 
f 38/40/1 37/39/2 55/58/2 56/59/1 
f 37/39/2 39/41/3 57/60/3 55/58/2 
f 39/41/3 40/42/4 58/61/4 57/60/3 
f 40/42/4 41/43/5 59/62/5 58/61/4 
f 41/45/5 42/44/6 60/63/6 59/64/5 
f 42/44/6 43/46/7 61/65/7 60/63/6 
f 43/46/7 44/47/8 62/66/8 61/65/7 
f 44/47/8 45/48/9 63/67/9 62/66/8 
f 45/48/9 46/49/10 64/68/10 63/67/9 
f 46/49/10 47/50/11 65/69/11 64/68/10 
f 47/50/11 48/51/12 66/70/12 65/69/11 
f 48/51/12 49/52/13 67/71/13 66/70/12 
f 49/52/13 50/53/14 68/72/14 67/71/13 
f 50/53/14 51/54/15 69/73/15 68/72/14 
f 51/54/15 52/55/16 70/74/16 69/73/15 
f 52/55/16 53/56/17 71/75/17 70/74/16 
f 53/56/17 54/57/18 72/76/18 71/75/17 
f 54/57/18 38/40/1 56/59/1 72/76/18 
f 56/59/1 55/58/2 73/77/2 74/78/1 
f 55/58/2 57/60/3 75/79/3 73/77/2 
f 57/60/3 58/61/4 76/80/4 75/79/3 
f 58/61/4 59/62/5 77/81/5 76/80/4 
f 59/64/5 60/63/6 78/82/6 77/83/5 
f 60/63/6 61/65/7 79/84/7 78/82/6 
f 61/65/7 62/66/8 80/85/8 79/84/7 
f 62/66/8 63/67/9 81/86/9 80/85/8 
f 63/67/9 64/68/10 82/87/10 81/86/9 
f 64/68/10 65/69/11 83/88/11 82/87/10 
f 65/69/11 66/70/12 84/89/12 83/88/11 
f 66/70/12 67/71/13 85/90/13 84/89/12 
f 67/71/13 68/72/14 86/91/14 85/90/13 
f 68/72/14 69/73/15 87/92/15 86/91/14 
f 69/73/15 70/74/16 88/93/16 87/92/15 
f 70/74/16 71/75/17 89/94/17 88/93/16 
f 71/75/17 72/76/18 90/95/18 89/94/17 
f 72/76/18 56/59/1 74/78/1 90/95/18 
f 74/78/1 73/77/2 91/96/2 92/97/1 
f 73/77/2 75/79/3 93/98/3 91/96/2 
f 75/79/3 76/80/4 94/99/4 93/98/3 
f 76/80/4 77/81/5 95/100/5 94/99/4 
f 77/83/5 78/82/6 96/101/6 95/102/5 
f 78/82/6 79/84/7 97/103/7 96/101/6 
f 79/84/7 80/85/8 98/104/8 97/103/7 
f 80/85/8 81/86/9 99/105/9 98/104/8 
f 81/86/9 82/87/10 100/106/10 99/105/9 
f 82/87/10 83/88/11 101/107/11 100/106/10 
f 83/88/11 84/89/12 102/108/12 101/107/11 
f 84/89/12 85/90/13 103/109/13 102/108/12 
f 85/90/13 86/91/14 104/110/14 103/109/13 
f 86/91/14 87/92/15 105/111/15 104/110/14 
f 87/92/15 88/93/16 106/112/16 105/111/15 
f 88/93/16 89/94/17 107/113/17 106/112/16 
f 89/94/17 90/95/18 108/114/18 107/113/17 
f 90/95/18 74/78/1 92/97/1 108/114/18 
# 90 polygons

